<?xml version="1.0" encoding="UTF-8"?>
<svg id="Layer_2" data-name="Layer 2" xmlns="http://www.w3.org/2000/svg" viewBox="0 0 688 451.63">
  <g id="Layer_1-2" data-name="Layer 1">
    <g>
      <g>
        <path d="M7.66,176.85c-8.64-4.03-9.51-11.81-4.9-20.45l2.59-4.03c4.03-7.49,10.66-8.35,18.15-4.61,10.37,4.9,21.6,8.35,31.4,8.35,16.42,0,22.47-5.18,22.47-12.96,0-23.33-76.04-8.06-76.04-61.06,0-27.65,25.92-43.2,57.03-43.2,15.84,0,29.67,2.59,42.34,8.06,8.93,4.03,10.37,11.52,5.47,20.45l-2.3,4.03c-4.32,7.2-10.66,8.35-18.43,4.9-8.06-3.74-16.42-6.34-24.48-6.34-12.67,0-19.59,4.9-19.59,11.81,0,22.75,76.04,8.93,76.04,61.35,0,27.08-23.04,44.07-61.06,44.07-18.15,0-35.14-3.46-48.68-10.37Z"/>
        <path d="M208.12,184.34c-32.84,0-52.13-20.74-52.13-54.15v-54.15h-10.95c-10.08,0-15.27-5.47-15.27-15.55v-3.17c0-10.08,5.19-15.55,15.27-15.55h10.95v-25.63c0-10.37,5.76-16.13,16.13-16.13h8.07c10.37,0,16.13,5.76,16.13,16.13v25.63h22.47c10.08,0,15.84,5.47,15.84,15.55v3.17c0,10.08-5.76,15.55-15.84,15.55h-22.47v50.12c0,18.15,8.35,23.91,20.16,23.91h4.9c8.64,0,13.25,5.47,13.25,15.55v3.17c0,10.08-6.34,15.55-16.71,15.55h-9.79Z"/>
        <path d="M526.4,51.27v14.98c0,8.35-4.9,13.25-14.11,13.25-21.31,0-36.01,13.83-36.01,44.93v43.78c0,10.37-5.76,16.13-16.42,16.13h-7.78c-10.66,0-16.42-5.76-16.42-16.13V57.89c0-10.37,5.76-16.13,16.42-16.13h7.78c10.66,0,16.42,5.76,16.42,16.13v4.9c9.51-16.71,23.62-23.91,38.6-23.91,7.49,0,11.52,4.32,11.52,12.39Z"/>
        <path d="M670.7,125.01h-90.15c4.61,19.87,20.45,31.11,38.31,31.11,12.96,0,21.31-4.61,30.24-11.52,6.62-4.9,11.52-4.32,17,3.74l3.74,6.05c4.03,6.34,3.46,12.96-3.74,18.43-11.52,8.64-28.23,14.4-48.1,14.4-42.34,0-77.48-28.23-77.48-74.02s31.4-74.31,74.6-74.31c39.46,0,72.01,25.06,72.01,69.42,0,11.23-6.62,16.71-16.42,16.71ZM580.55,99.95h68.55c-3.74-19.59-16.99-30.24-33.99-30.24s-30.53,10.95-34.56,30.24Z"/>
        <g>
          <path d="M314.55,103.07c1.73,0,3.14-1.41,3.14-3.14v-9.42h-6.28v9.42c0,1.73,1.41,3.14,3.14,3.14Z"/>
          <path d="M342.82,99.93c0,1.73,1.41,3.14,3.14,3.14s3.14-1.41,3.14-3.14v-9.42h-6.28v9.42Z"/>
          <path d="M330.25,65.37c-6.94,0-12.56,5.62-12.56,12.56v12.56h25.13v-12.56c0-6.94-5.63-12.56-12.56-12.56Z"/>
          <path d="M330.25,38.88c-44.07,0-77.48,32.26-77.48,74.31s33.41,74.02,77.48,74.02,77.77-31.97,77.77-74.02-33.41-74.31-77.77-74.31ZM359.63,159.6h-58.77c-.78,0-1.55-.06-2.32-.17-8.58-1.28-14.49-9.28-13.21-17.86l6.45-43.05c.69-4.61,4.65-8.02,9.32-8.02h10.3v-12.56c0-10.41,8.44-18.85,18.85-18.85s18.85,8.44,18.85,18.85v12.56h10.3c4.66,0,8.62,3.41,9.31,8.02l6.46,43.05c.12.77.17,1.55.17,2.33,0,8.67-7.03,15.7-15.71,15.7Z"/>
        </g>
      </g>
      <g>
        <path d="M71.71,446.81c-12.53,0-19.28-6.75-19.28-19.28v-152.31l-20.24,16.39c-8.35,6.75-16.07,5.78-22.49-2.57l-4.82-5.78c-6.43-8.35-5.46-16.07,2.89-22.81l39.84-32.13c5.78-4.82,10.6-6.43,17.35-6.43h15.74c12.53,0,19.28,6.75,19.28,19.28v186.37c0,12.53-6.75,19.28-19.28,19.28h-9Z"/>
        <path d="M301.45,292.25c0,20.24-4.5,38.88-20.89,66.51l-44.34,74.87c-4.82,9-10.93,13.17-20.56,13.17h-13.17c-9.96,0-15.1-4.5-15.1-11.89,0-3.21.96-7.07,3.21-11.25l36.31-59.44c-5.14.96-10.6,1.61-16.71,1.61-39.84,0-74.23-27.63-74.23-73.26s34.7-75.51,82.9-75.51,82.58,31.81,82.58,75.19ZM254.22,292.25c0-20.24-15.1-33.74-35.02-33.74s-35.99,13.5-35.99,33.74c0,21.53,16.07,34.7,35.67,34.7s35.35-14.14,35.35-34.7Z"/>
        <path d="M342.58,446.81c-12.21,0-18.96-6.75-18.96-19.28v-6.43c0-8.68,2.57-14.14,8.68-20.24l57.52-58.16c20.56-20.24,31.81-34.7,31.81-53.66,0-17.35-11.57-27.63-28.92-27.63-10.93,0-21.85,3.53-33.74,11.57-8.03,5.78-14.78,4.5-20.56-3.86l-4.82-7.39c-6.75-10.28-6.43-19.92,3.86-26.99,16.71-11.57,36.31-17.67,58.16-17.67,42.09,0,73.58,24.42,73.58,69.73,0,33.1-17.67,54.95-43.06,79.69l-36.31,35.99h59.44c12.53,0,19.28,6.75,19.28,18.96v6.1c0,12.53-6.75,19.28-19.28,19.28h-106.68Z"/>
        <g>
          <path d="M609.08,218.36c-1.1.75-2.61.57-3.5-.47-.02-.02-.04-.04-.06-.06-3.91-.5-7.91-.77-11.99-.77-.36,0-.72.01-1.08.01-4.52,4.63-7.7,14.05-7.7,24.63,0,3.52.35,6.9.99,10.03,7.91-3.44,18-2.3,24.45,3.43l23.87,21.19c3.27,2.9,5.08,6.71,5.08,10.67v107.7c0,7.77-7.64,14.07-17.07,14.07h-53.79c-9.43,0-17.07-6.3-17.07-14.07v-107.68c0-3.97,1.83-7.79,5.11-10.7l23.99-21.21c.19-.17.41-.32.61-.48-.96-3.96-1.49-8.33-1.49-12.95,0-9.72,2.34-18.33,6.12-24.32-51.06,4.24-86.83,49.4-86.83,116.95s39.52,117.28,94.79,117.28,94.47-46.59,94.47-117.28c0-64.12-32.22-108.06-78.92-115.99Z"/>
          <path d="M601.69,268.64c-1.84-1.53-4.2-2.45-6.78-2.45-.81,0-1.59.1-2.34.27,1.86,1.86,3.93,2.92,6.11,2.92,1.01,0,2.02-.26,3.02-.73Z"/>
          <path d="M584.3,276.8c0,5.86,4.75,10.61,10.61,10.61s10.61-4.75,10.61-10.61c0-1.33-.26-2.61-.71-3.78-1.95,1.09-4.02,1.66-6.14,1.66-4.09,0-7.84-2.09-10.93-5.69-2.11,1.94-3.45,4.72-3.45,7.81Z"/>
        </g>
      </g>
    </g>
  </g>
</svg>